<?xml version="1.0" encoding="UTF-8"?>
<svg version="1.1" xmlns="http://www.w3.org/2000/svg" width="252" height="72">
<path d="M0 0 C83.16 0 166.32 0 252 0 C252 23.76 252 47.52 252 72 C168.84 72 85.68 72 0 72 C0 48.24 0 24.48 0 0 Z " fill="#EFF2F7" transform="translate(0,0)"/>
<path d="M0 0 C1.12347839 0.00607269 1.12347839 0.00607269 2.26965332 0.01226807 C3.03894165 0.01035461 3.80822998 0.00844116 4.60083008 0.00646973 C6.22823412 0.00510799 7.85564902 0.00880368 9.48303223 0.01715088 C11.97855963 0.02785086 14.47336714 0.01725555 16.96887207 0.00445557 C18.54830075 0.00577716 20.12772898 0.00833956 21.70715332 0.01226807 C22.45613892 0.0082196 23.20512451 0.00417114 23.97680664 0 C29.25848089 0.04797064 29.25848089 0.04797064 31.48840332 2.27789307 C31.15840332 3.92789307 30.82840332 5.57789307 30.48840332 7.27789307 C20.25840332 7.27789307 10.02840332 7.27789307 -0.51159668 7.27789307 C-0.51159668 10.57789307 -0.51159668 13.87789307 -0.51159668 17.27789307 C1.94406738 17.24308838 1.94406738 17.24308838 4.44934082 17.20758057 C6.58735711 17.18882604 8.72537831 17.1706255 10.86340332 17.15289307 C11.9436377 17.13613525 13.02387207 17.11937744 14.13684082 17.10211182 C15.16809082 17.0956665 16.19934082 17.08922119 17.26184082 17.08258057 C18.6914917 17.06687012 18.6914917 17.06687012 20.15002441 17.05084229 C22.48840332 17.27789307 22.48840332 17.27789307 24.48840332 19.27789307 C24.15840332 20.92789307 23.82840332 22.57789307 23.48840332 24.27789307 C15.56840332 24.27789307 7.64840332 24.27789307 -0.51159668 24.27789307 C-0.51159668 27.57789307 -0.51159668 30.87789307 -0.51159668 34.27789307 C0.38671875 34.26741943 1.28503418 34.2569458 2.21057129 34.24615479 C5.53904779 34.21209836 8.86733954 34.18700688 12.19592285 34.16802979 C13.63735879 34.15796344 15.07877427 34.14430926 16.5201416 34.12701416 C18.59034266 34.10279295 20.66027408 34.09141665 22.73059082 34.08258057 C24.60013428 34.06687012 24.60013428 34.06687012 26.50744629 34.05084229 C29.48840332 34.27789307 29.48840332 34.27789307 31.48840332 36.27789307 C30.93284776 40.83344862 30.93284776 40.83344862 29.48840332 42.27789307 C27.00253405 42.39119874 24.5454948 42.44206644 22.05871582 42.44586182 C21.31258026 42.44919022 20.5664447 42.45251862 19.79769897 42.45594788 C18.2156028 42.46102062 16.6334959 42.4633561 15.0513916 42.4631958 C12.63047595 42.46537768 10.21001922 42.48351647 7.78918457 42.50250244 C6.25402988 42.50543721 4.71887302 42.50742145 3.18371582 42.50836182 C2.09608444 42.51914009 2.09608444 42.51914009 0.98648071 42.53013611 C-2.73564727 42.51322716 -4.33101795 42.39827889 -7.51159668 40.27789307 C-7.80318817 37.39295376 -7.90750205 34.72601369 -7.87487793 31.84039307 C-7.87537643 31.0045166 -7.87587494 30.16864014 -7.87638855 29.30743408 C-7.87404627 27.53877385 -7.86430865 25.77011041 -7.84777832 24.00152588 C-7.82419029 21.28865874 -7.82721535 18.57677412 -7.8338623 15.86383057 C-7.82828557 14.14767885 -7.82117572 12.43153129 -7.81237793 10.71539307 C-7.81328934 9.90078613 -7.81420074 9.0861792 -7.81513977 8.24688721 C-7.73010218 1.51863065 -6.82665362 0.06200286 0 0 Z " fill="#0D0C31" transform="translate(74.5115966796875,12.72210693359375)"/>
<path d="M0 0 C1 1 1 1 1.11352539 2.94946289 C1.10828857 3.7821167 1.10305176 4.61477051 1.09765625 5.47265625 C1.09443359 6.37177734 1.09121094 7.27089844 1.08789062 8.19726562 C1.07951172 9.14279297 1.07113281 10.08832031 1.0625 11.0625 C1.05798828 12.01189453 1.05347656 12.96128906 1.04882812 13.93945312 C1.0370011 16.29303065 1.02052025 18.64648477 1 21 C2.12921875 20.12601563 2.12921875 20.12601563 3.28125 19.234375 C5.53526483 17.49196577 7.79555361 15.75801074 10.05859375 14.02734375 C12.81808248 11.91591147 15.5552671 9.77843982 18.28515625 7.62890625 C19.71061112 6.52301667 21.13638693 5.41754065 22.5625 4.3125 C23.57957031 3.50087402 23.57957031 3.50087402 24.6171875 2.67285156 C25.26042969 2.17881836 25.90367187 1.68478516 26.56640625 1.17578125 C27.13302979 0.73145752 27.69965332 0.28713379 28.28344727 -0.1706543 C30 -1 30 -1 32.21459961 -0.63598633 C32.80378174 -0.42611084 33.39296387 -0.21623535 34 0 C34.6875 1.78515625 34.6875 1.78515625 35 4 C33.8125 5.74609375 33.8125 5.74609375 32 7.4375 C31.03900391 8.3346875 31.03900391 8.3346875 30.05859375 9.25 C27.16048 11.71367165 24.15484694 13.87530716 21 16 C21.58563598 19.1913043 22.50558604 20.89191356 24.72265625 23.2421875 C25.26083984 23.83386719 25.79902344 24.42554687 26.35351562 25.03515625 C27.4907658 26.2594873 28.63400082 27.4782869 29.78320312 28.69140625 C33.92158079 33.27193951 33.92158079 33.27193951 34.37109375 37.4453125 C34.18740234 38.70988281 34.18740234 38.70988281 34 40 C31.525 40.495 31.525 40.495 29 41 C24 35 19 29 14 23 C9.17380119 24.46248449 5.16369822 27.07324177 2 31 C1.2214015 33.73781695 1.14369683 36.12606336 1 39 C0.34 39.66 -0.32 40.32 -1 41 C-4.53571429 40.46428571 -4.53571429 40.46428571 -6 39 C-6.08865208 36.1156618 -6.11521296 33.25537842 -6.09765625 30.37109375 C-6.0962413 29.50686295 -6.09482635 28.64263214 -6.09336853 27.75221252 C-6.08775239 24.98060708 -6.07519719 22.2090812 -6.0625 19.4375 C-6.05748708 17.5631522 -6.05292381 15.68880315 -6.04882812 13.81445312 C-6.03777772 9.20960456 -6.0205023 4.60481579 -6 0 C-3.49749232 -1.25125384 -2.59701335 -0.83774624 0 0 Z " fill="#09092D" transform="translate(119,14)"/>
<path d="M0 0 C4.81353451 1.63316349 7.20055573 3.79792357 10 8 C10.89270141 13.26386003 11.22715706 19.19866197 9.046875 24.17578125 C6.55173592 27.35787318 3.74924866 28.7648888 0 30 C-4.86024754 30.5376998 -9.42496397 30.62345176 -14 28.8125 C-17.35202931 25.77472344 -19.76751759 21.93931529 -20.30859375 17.42578125 C-20.69940934 7.98699266 -20.69940934 7.98699266 -17.125 3.8125 C-12.13744066 -1.13891761 -6.72908738 -0.48442383 0 0 Z " fill="#EDF0F5" transform="translate(181,19)"/>
<path d="M0 0 C4.44950425 3.11006585 7.00207113 6.61118411 8 12 C8.53430737 18.96542511 8.70856922 24.94267028 5 31 C0.91004639 35.28471331 -2.94192794 37.83976588 -8.86328125 38.30078125 C-10.34628791 38.3153335 -11.82943579 38.31890909 -13.3125 38.3125 C-14.04662109 38.32861328 -14.78074219 38.34472656 -15.53710938 38.36132812 C-21.33329876 38.36647115 -26.1244585 37.40834826 -30.70703125 33.5703125 C-36.03625148 26.60278075 -36.89561251 20.62027039 -36 12 C-34.29112173 6.07718328 -31.06396563 2.37597708 -26 -1 C-17.40322233 -4.4062704 -8.3812603 -3.79931494 0 0 Z M-28 9 C-30.0794205 13.158841 -29.33831559 18.4594486 -29 23 C-27.63393574 26.70788871 -26.1190753 29.53073206 -23 32 C-17.32852986 33.89049005 -11.19202086 33.75724357 -5.5625 31.8125 C-2.65663971 29.75713541 -0.97387322 27.9690343 1 25 C1.89270141 19.73613997 2.22715706 13.80133803 0.046875 8.82421875 C-3.09465097 4.81777899 -6.96093169 3.28891431 -11.8671875 2.59375 C-19.12665045 2.36748102 -23.34982323 3.19104131 -28 9 Z " fill="#101034" transform="translate(190,16)"/>
<path d="M0 0 C0.79273315 0.00404846 1.58546631 0.00809692 2.40222168 0.01226807 C3.62274231 0.00939789 3.62274231 0.00939789 4.86791992 0.00646973 C6.58948068 0.0051078 8.31105171 0.00880479 10.03259277 0.01715088 C12.67296338 0.02785048 15.31265357 0.01725607 17.95300293 0.00445557 C19.62357735 0.00577716 21.29415135 0.00833955 22.96472168 0.01226807 C23.75745483 0.0082196 24.55018799 0.00417114 25.36694336 0 C30.95355141 0.04797279 30.95355141 0.04797279 33.18347168 2.27789307 C32.89202722 6.20291354 31.75879466 8.2071684 29.02819824 10.96661377 C28.03146088 11.98710564 28.03146088 11.98710564 27.0145874 13.0282135 C26.29172546 13.74611557 25.56886353 14.46401764 24.82409668 15.20367432 C24.08270447 15.95126511 23.34131226 16.6988559 22.57745361 17.46910095 C21.00875785 19.04489419 19.43490863 20.61557155 17.85632324 22.18145752 C15.44054737 24.58335802 13.04972904 27.00827837 10.66003418 29.43609619 C9.1328402 30.96424123 7.60424047 32.49098295 6.07409668 34.01617432 C5.35933167 34.74419754 4.64456665 35.47222076 3.90814209 36.2223053 C3.23104187 36.88687241 2.55394165 37.55143951 1.85632324 38.23614502 C1.26643616 38.82507034 0.67654907 39.41399567 0.06878662 40.02076721 C-2.345038 41.63030272 -3.97412615 41.51589334 -6.81652832 41.27789307 C-7.66369629 39.15948486 -7.66369629 39.15948486 -7.81652832 36.27789307 C-6.03254123 33.96812565 -4.36635556 32.1511836 -2.26184082 30.17242432 C-1.68570038 29.60714523 -1.10955994 29.04186615 -0.51596069 28.4594574 C1.32857648 26.65513683 3.19251913 24.87253385 5.05847168 23.09039307 C6.91282669 21.29340161 8.76301986 19.49224617 10.61148071 17.68919373 C11.76343542 16.56841659 12.9196434 15.4519916 14.08041382 14.34034729 C17.00655208 11.60001076 17.00655208 11.60001076 19.18347168 8.27789307 C12.58347168 8.27789307 5.98347168 8.27789307 -0.81652832 8.27789307 C-0.81652832 10.91789307 -0.81652832 13.55789307 -0.81652832 16.27789307 C-1.47652832 16.93789307 -2.13652832 17.59789307 -2.81652832 18.27789307 C-6.35224261 17.74217878 -6.35224261 17.74217878 -7.81652832 16.27789307 C-7.94209994 13.96795924 -7.99228561 11.6537077 -8.00402832 9.34039307 C-8.01820801 8.07324463 -8.0323877 6.80609619 -8.04699707 5.50054932 C-7.640055 -0.18974236 -5.09242606 0.0437292 0 0 Z " fill="#08082C" transform="translate(27.8165283203125,12.72210693359375)"/>
<path d="M0 0 C1.20269531 -0.00257812 2.40539062 -0.00515625 3.64453125 -0.0078125 C4.90652344 -0.00007813 6.16851562 0.00765625 7.46875 0.015625 C8.73074219 0.00789063 9.99273437 0.00015625 11.29296875 -0.0078125 C12.49566406 -0.00523438 13.69835937 -0.00265625 14.9375 0 C16.04544922 0.00225586 17.15339844 0.00451172 18.29492188 0.00683594 C20.96875 0.265625 20.96875 0.265625 22.96875 2.265625 C23.11392744 5.1749808 23.15505796 7.985571 23.09375 10.890625 C23.08472656 11.69242188 23.07570312 12.49421875 23.06640625 13.3203125 C23.04281223 15.30221023 23.00694065 17.28395481 22.96875 19.265625 C21.64875 19.265625 20.32875 19.265625 18.96875 19.265625 C18.63875 13.985625 18.30875 8.705625 17.96875 3.265625 C17.30875 3.265625 16.64875 3.265625 15.96875 3.265625 C15.63875 7.885625 15.30875 12.505625 14.96875 17.265625 C14.63875 15.945625 14.30875 14.625625 13.96875 13.265625 C13.35515625 13.18183594 12.7415625 13.09804688 12.109375 13.01171875 C9.96875 12.265625 9.96875 12.265625 8.703125 10.48828125 C8.21585938 9.41900391 8.21585938 9.41900391 7.71875 8.328125 C7.38359375 7.61785156 7.0484375 6.90757813 6.703125 6.17578125 C5.96875 4.265625 5.96875 4.265625 5.96875 2.265625 C3.26828376 3.27688746 2.16908398 3.8957273 0.7734375 6.47265625 C0.46664062 7.33246094 0.15984375 8.19226562 -0.15625 9.078125 C-0.46820313 9.93019531 -0.78015625 10.78226563 -1.1015625 11.66015625 C-1.40835938 12.51996094 -1.71515625 13.37976563 -2.03125 14.265625 C-2.69154293 15.93482705 -3.3563535 17.60227388 -4.03125 19.265625 C-3.04125 19.265625 -2.05125 19.265625 -1.03125 19.265625 C-0.84949219 18.65074219 -0.66773438 18.03585938 -0.48046875 17.40234375 C-0.22910156 16.59410156 0.02226562 15.78585938 0.28125 14.953125 C0.64669922 13.75236328 0.64669922 13.75236328 1.01953125 12.52734375 C2.01057023 10.16597927 3.04949943 8.92682507 4.96875 7.265625 C5.67055531 8.6752597 6.35468958 10.09370141 7.03125 11.515625 C7.41410156 12.30453125 7.79695312 13.0934375 8.19140625 13.90625 C9.05439091 16.52556022 8.89920933 17.71417676 7.96875 20.265625 C5.67733714 20.31947021 3.38556812 20.35834587 1.09375 20.390625 C-0.18242187 20.41382812 -1.45859375 20.43703125 -2.7734375 20.4609375 C-6.03125 20.265625 -6.03125 20.265625 -8.03125 18.265625 C-8.22977102 15.55639699 -8.30964477 12.97259321 -8.28125 10.265625 C-8.28898438 9.52828125 -8.29671875 8.7909375 -8.3046875 8.03125 C-8.27897362 0.98564714 -6.81311701 0.01387197 0 0 Z " fill="#5643C2" transform="translate(209.03125,33.734375)"/>
<path d="M0 0 C0.99 0 1.98 0 3 0 C3.32613281 0.71027344 3.65226563 1.42054687 3.98828125 2.15234375 C4.64376953 3.53099609 4.64376953 3.53099609 5.3125 4.9375 C5.74175781 5.85402344 6.17101562 6.77054688 6.61328125 7.71484375 C7.85078661 10.30969412 7.85078661 10.30969412 11 11 C11.33 7.7 11.66 4.4 12 1 C13.32 1 14.64 1 16 1 C16 6.28 16 11.56 16 17 C16.99 17.33 17.98 17.66 19 18 C16.33821779 19.3308911 14.31260604 19.11268993 11.3359375 19.09765625 C10.21445313 19.09443359 9.09296875 19.09121094 7.9375 19.08789062 C6.761875 19.07951172 5.58625 19.07113281 4.375 19.0625 C3.19164062 19.05798828 2.00828125 19.05347656 0.7890625 19.04882812 C-2.14067507 19.03701467 -5.07031272 19.02054258 -8 19 C-8 18.67 -8 18.34 -8 18 C-3.71 18 0.58 18 5 18 C4.16687441 13.00124645 3.34505694 10.28227788 1 6 C-0.65 9.63 -2.3 13.26 -4 17 C-4.99 17 -5.98 17 -7 17 C-6.37146504 13.0859414 -5.16874718 9.83974685 -3.5 6.25 C-3.0565625 5.28578125 -2.613125 4.3215625 -2.15625 3.328125 C-1 1 -1 1 0 0 Z " fill="#7F71C7" transform="translate(212,36)"/>
<path d="M0 0 C2.79192205 -0.05380578 5.5828141 -0.09357669 8.375 -0.125 C9.1690625 -0.14175781 9.963125 -0.15851562 10.78125 -0.17578125 C12.85492015 -0.19335473 14.92883241 -0.10335168 17 0 C19 2 19 2 19.1953125 5.9140625 C19.18200376 7.48449351 19.15813602 9.05486221 19.125 10.625 C19.11597656 11.42679688 19.10695312 12.22859375 19.09765625 13.0546875 C19.07406223 15.03658523 19.03819065 17.01832981 19 19 C17.68 19 16.36 19 15 19 C14.67 13.72 14.34 8.44 14 3 C13.34 3 12.68 3 12 3 C11.67 7.62 11.34 12.24 11 17 C10.67 15.68 10.34 14.36 10 13 C9.401875 12.938125 8.80375 12.87625 8.1875 12.8125 C6 12 6 12 4.25 9.75 C2.92846953 6.84263298 3 5.1243651 3 2 C2.01 1.34 1.02 0.68 0 0 Z " fill="#4E39C0" transform="translate(213,34)"/>
<path d="M0 0 C2.475 0.99 2.475 0.99 5 2 C5 5.3 5 8.6 5 12 C3.35 12 1.7 12 0 12 C-0.66 9.69 -1.32 7.38 -2 5 C-2 5.99 -2 6.98 -2 8 C-2 9.32 -2 10.64 -2 12 C-5.34023421 12.09278428 -7.68756695 11.82810826 -11 11 C-7.37 7.37 -3.74 3.74 0 0 Z " fill="#C6C3EA" transform="translate(37,42)"/>
<path d="M0 0 C0.99 0 1.98 0 3 0 C9 11.73786408 9 11.73786408 9 17 C8.01 17 7.02 17 6 17 C5.58427734 15.93458984 5.58427734 15.93458984 5.16015625 14.84765625 C4.79792969 13.92855469 4.43570313 13.00945313 4.0625 12.0625 C3.70285156 11.14597656 3.34320313 10.22945312 2.97265625 9.28515625 C2.2003782 7.07581467 2.2003782 7.07581467 1 6 C-0.65 9.63 -2.3 13.26 -4 17 C-4.99 17 -5.98 17 -7 17 C-6.37146504 13.0859414 -5.16874718 9.83974685 -3.5 6.25 C-3.0565625 5.28578125 -2.613125 4.3215625 -2.15625 3.328125 C-1 1 -1 1 0 0 Z " fill="#E3DFF2" transform="translate(212,36)"/>
<path d="M0 0 C2.9603645 3.36405057 4.03380551 6.65212478 5 11 C4.67 11.66 4.34 12.32 4 13 C-0.62 13 -5.24 13 -10 13 C-10.33 12.34 -10.66 11.68 -11 11 C-10.34 11 -9.68 11 -9 11 C-9 9.35 -9 7.7 -9 6 C-7.68 5.34 -6.36 4.68 -5 4 C-5.99 6.64 -6.98 9.28 -8 12 C-7.01 12 -6.02 12 -5 12 C-4.80664062 11.38511719 -4.61328125 10.77023438 -4.4140625 10.13671875 C-4.15367187 9.32847656 -3.89328125 8.52023438 -3.625 7.6875 C-3.36976563 6.88699219 -3.11453125 6.08648437 -2.8515625 5.26171875 C-2 3 -2 3 0 0 Z " fill="#5B4ABB" transform="translate(213,41)"/>
<path d="M0 0 C1 1 1 1 1.0625 4.5625 C1.041875 5.696875 1.02125 6.83125 1 8 C-1.98212913 9.49106457 -4.71609658 9.11941467 -8 9 C-9 8 -9 8 -9.09765625 6.15234375 C-9.06510417 4.1015625 -9.03255208 2.05078125 -9 0 C-5.90842747 -1.54578627 -3.31526981 -0.60277633 0 0 Z " fill="#131135" transform="translate(60,45)"/>
<path d="M0 0 C1.65 0 3.3 0 5 0 C5 3.3 5 6.6 5 10 C3.35 10 1.7 10 0 10 C0 6.7 0 3.4 0 0 Z " fill="#8979F2" transform="translate(37,44)"/>
<path d="M0 0 C0.99 0.33 1.98 0.66 3 1 C3 5.95 3 10.9 3 16 C2.01 16.33 1.02 16.66 0 17 C0 11.39 0 5.78 0 0 Z " fill="#EDE6FA" transform="translate(225,36)"/>
<path d="M0 0 C1.65 0 3.3 0 5 0 C6.65497356 3.30994713 6.10084335 6.99123 6.0625 10.625 C6.05798828 11.42679688 6.05347656 12.22859375 6.04882812 13.0546875 C6.03703168 15.03649006 6.01909605 17.01825433 6 19 C5.67 19 5.34 19 5 19 C4.67 13.72 4.34 8.44 4 3 C3.34 3 2.68 3 2 3 C1.67 7.62 1.34 12.24 1 17 C0.67 17 0.34 17 0 17 C0 11.39 0 5.78 0 0 Z " fill="#4F3DAC" transform="translate(223,34)"/>
<path d="M0 0 C7.26 0 14.52 0 22 0 C21.67 0.66 21.34 1.32 21 2 C14.4 1.67 7.8 1.34 1 1 C1 3.64 1 6.28 1 9 C0.34 9.66 -0.32 10.32 -1 11 C-3.125 10.625 -3.125 10.625 -5 10 C-5 9.34 -5 8.68 -5 8 C-3.35 8 -1.7 8 0 8 C0 5.36 0 2.72 0 0 Z " fill="#53546C" transform="translate(26,20)"/>
<path d="M0 0 C0.66 0.99 1.32 1.98 2 3 C1.1015625 5.69921875 1.1015625 5.69921875 -0.375 8.6875 C-0.85710937 9.68136719 -1.33921875 10.67523438 -1.8359375 11.69921875 C-2.22007812 12.45847656 -2.60421875 13.21773437 -3 14 C-3.99 14 -4.98 14 -6 14 C-5.41162314 9.29298514 -3.44104424 3.44104424 0 0 Z " fill="#EAE6F6" transform="translate(211,39)"/>
<path d="M0 0 C1.32 0 2.64 0 4 0 C4 2.97 4 5.94 4 9 C2.68 9 1.36 9 0 9 C0 6.03 0 3.06 0 0 Z " fill="#4B37C0" transform="translate(44,45)"/>
<path d="M0 0 C1.98 0.495 1.98 0.495 4 1 C4 2.65 4 4.3 4 6 C2.35 5.67 0.7 5.34 -1 5 C-0.67 3.35 -0.34 1.7 0 0 Z " fill="#1F1D43" transform="translate(54,37)"/>
</svg>
